# xmcd
#
# Track frame offsets: 
#        150
#        30152
#        53869
#        87051
#        118078
#        152270
#        179755
#        208864
#
# Disc length: 3108 seconds
#
# Revision: 3
# Processed by: cddbd v1.5.2PL0 Copyright (c) Steve Scherf et al.
# Submitted via: ExactAudioCopy v1.0b3
#
DISCID=5f0c2208
DTITLE=Cafe del Mar - Aria Vol.1
DYEAR=1997
DGENRE=Ballad
TTITLE0=Willow
TTITLE1=Un Bel Di
TTITLE2=Secret Tear
TTITLE3=Dido
TTITLE4=Pace Pace
TTITLE5=Pamina Blue
TTITLE6=Habanera
TTITLE7=Home
EXTD=
EXTT0=
EXTT1=
EXTT2=
EXTT3=
EXTT4=
EXTT5=
EXTT6=
EXTT7=
PLAYORDER=
